<svg width="24.000000" height="24.000000" viewBox="0 0 24 24" fill="none" xmlns="http://www.w3.org/2000/svg" xmlns:xlink="http://www.w3.org/1999/xlink">
	<desc>
			Created with Pixso.
	</desc>
	<defs/>
	<rect id="BASE" width="24.000000" height="24.000000" fill="#415167" fill-opacity="1.000000"/>
	<path id="Shape" d="M4.31 4.66L17.72 4.66C17.76 4.66 17.8 4.67 17.84 4.69L18.17 3.58C18.27 3.23 18.59 3 18.95 3L20.59 3C20.81 3 21 3.18 21 3.41L21 4.24C21 4.47 20.81 4.66 20.59 4.66L19.56 4.66L17 13.2L17.95 14.33C18.33 14.78 18.5 15.4 18.33 15.96C18.11 16.68 17.48 17.14 16.76 17.14L5.04 17.14C4.81 17.14 4.63 16.95 4.63 16.72L4.63 15.89C4.63 15.66 4.81 15.47 5.04 15.47L16.76 15.47L15.46 13.94C15.43 13.9 15.41 13.85 15.38 13.81L7.46 13.81C6.82 13.81 6.24 13.44 5.97 12.85L3.12 6.69C3.04 6.51 3 6.31 3 6.12L3 6C3 5.26 3.58 4.66 4.31 4.66Z" fill="#F9FBFF" fill-opacity="1.000000" fill-rule="nonzero"/>
	<path id="Oval" d="M16.17 21C15.29 21 14.57 20.28 14.57 19.39C14.57 18.5 15.29 17.78 16.17 17.78C17.06 17.78 17.78 18.5 17.78 19.39C17.78 20.28 17.06 21 16.17 21Z" fill="#FFFFFF" fill-opacity="1.000000" fill-rule="nonzero"/>
	<path id="Oval" d="M6.53 21C5.64 21 4.92 20.28 4.92 19.39C4.92 18.5 5.64 17.78 6.53 17.78C7.42 17.78 8.14 18.5 8.14 19.39C8.14 20.28 7.42 21 6.53 21Z" fill="#FFFFFF" fill-opacity="1.000000" fill-rule="nonzero"/>
</svg>
